<?xml version="1.0" encoding="UTF-8" standalone="no"?>
<!-- Created with Inkscape (http://www.inkscape.org/) -->

<svg
   width="129.265mm"
   height="244.265mm"
   viewBox="0 0 129.265 244.265"
   version="1.1"
   id="svg4063"
   xml:space="preserve"
   inkscape:version="1.2.2 (732a01da63, 2022-12-09)"
   sodipodi:docname="top_part.svg"
   xmlns:inkscape="http://www.inkscape.org/namespaces/inkscape"
   xmlns:sodipodi="http://sodipodi.sourceforge.net/DTD/sodipodi-0.dtd"
   xmlns="http://www.w3.org/2000/svg"
   xmlns:svg="http://www.w3.org/2000/svg"><sodipodi:namedview
     id="namedview4065"
     pagecolor="#505050"
     bordercolor="#eeeeee"
     borderopacity="1"
     inkscape:showpageshadow="0"
     inkscape:pageopacity="0"
     inkscape:pagecheckerboard="0"
     inkscape:deskcolor="#505050"
     inkscape:document-units="mm"
     showgrid="false"
     inkscape:zoom="0.64693624"
     inkscape:cx="-241.90947"
     inkscape:cy="462.17847"
     inkscape:window-width="2560"
     inkscape:window-height="1377"
     inkscape:window-x="-8"
     inkscape:window-y="-8"
     inkscape:window-maximized="1"
     inkscape:current-layer="layer1" /><defs
     id="defs4060"><marker
       id="DistanceX"
       orient="auto"
       refX="0"
       refY="0"
       style="overflow:visible"><path
         d="M 3,-3 -3,3 M 0,-5 V 5"
         style="stroke:#000000;stroke-width:0.5"
         id="path4186" /></marker><pattern
       id="Hatch"
       patternUnits="userSpaceOnUse"
       width="8"
       height="8"
       x="0"
       y="0"><path
         d="M8 4 l-4,4"
         stroke="#000000"
         stroke-width="0.25"
         linecap="square"
         id="path4189" /><path
         d="M6 2 l-4,4"
         stroke="#000000"
         stroke-width="0.25"
         linecap="square"
         id="path4191" /><path
         d="M4 0 l-4,4"
         stroke="#000000"
         stroke-width="0.25"
         linecap="square"
         id="path4193" /></pattern><symbol
       id="*MODEL_SPACE" /><symbol
       id="*PAPER_SPACE" /></defs><g
     inkscape:label="Layer 1"
     inkscape:groupmode="layer"
     id="layer1"
     transform="translate(-48.417365,-25.042004)"><g
       inkscape:label="0"
       id="g4218"
       transform="matrix(0.26458333,0,0,0.26458333,50.549866,-29.825496)"
       style="stroke-width:3.77952761;stroke-dasharray:none"><path
         d="m 277.79528,517.79528 v -49.13386 h 11.33858 v 49.13386 z"
         style="fill:none;stroke:#000000;stroke-width:3.77952761;stroke-dasharray:none"
         id="path4200" /><path
         d="M 289.13386,1009.1339 H 277.79528 V 960 h 11.33858 z"
         style="fill:none;stroke:#000000;stroke-width:3.77952761;stroke-dasharray:none"
         id="path4202" /><path
         d="M 194.64567,377.95276 H 183.30709 V 328.8189 h 11.33858 z"
         style="fill:none;stroke:#000000;stroke-width:3.77952761;stroke-dasharray:none"
         id="path4204" /><path
         d="M 289.13386,377.95276 H 277.79528 V 328.8189 h 11.33858 z"
         style="fill:none;stroke:#000000;stroke-width:3.77952761;stroke-dasharray:none"
         id="path4206" /><path
         d="m 194.64567,517.79528 h -11.33858 v -49.13386 h 11.33858 z"
         style="fill:none;stroke:#000000;stroke-width:3.77952761;stroke-dasharray:none"
         id="path4208" /><path
         d="m 289.13386,869.29134 h -11.33858 v -49.13386 h 11.33858 z"
         style="fill:none;stroke:#000000;stroke-width:3.77952761;stroke-dasharray:none"
         id="path4210" /><path
         d="m 194.64567,820.15748 v 49.13386 h -11.33858 v -49.13386 z"
         style="fill:none;stroke:#000000;stroke-width:3.77952761;stroke-dasharray:none"
         id="path4212" /><path
         d="m 194.64567,960 v 49.1339 H 183.30709 V 960 Z"
         style="fill:none;stroke:#000000;stroke-width:3.77952761;stroke-dasharray:none"
         id="path4214" /><path
         d="m 472.44094,1065.8268 v 56.6929 h -56.6929 v -11.3386 H 302.36221 v 11.3386 H 170.07874 v -11.3386 H 56.692914 v 11.3386 H 0 v -56.6929 H 11.338583 V 952.44094 H 0 V 839.05511 H 11.338583 V 725.66928 H 0 V 612.28346 H 11.338583 V 498.89763 H 0 V 385.5118 H 11.338583 V 272.12597 H 0 v -56.6929 h 472.44094 v 56.6929 H 461.10236 V 385.5118 h 11.33858 v 113.38583 h -11.33858 v 113.38583 h 11.33858 v 113.38582 h -11.33858 v 113.38583 h 11.33858 v 113.38583 h -11.33858 v 113.38586 z"
         style="fill:none;stroke:#000000;stroke-width:3.77952761;stroke-dasharray:none"
         id="path4216" /></g></g></svg>
