<?xml version="1.0" encoding="UTF-8" standalone="no"?>
<!-- Created with Inkscape (http://www.inkscape.org/) -->

<svg
   width="284.64001mm"
   height="191.925mm"
   viewBox="0 0 284.64001 191.925"
   version="1.1"
   id="svg1"
   xml:space="preserve"
   sodipodi:docname="door_left.svg"
   inkscape:version="1.2.2 (732a01da63, 2022-12-09)"
   xmlns:inkscape="http://www.inkscape.org/namespaces/inkscape"
   xmlns:sodipodi="http://sodipodi.sourceforge.net/DTD/sodipodi-0.dtd"
   xmlns="http://www.w3.org/2000/svg"
   xmlns:svg="http://www.w3.org/2000/svg"><sodipodi:namedview
     id="namedview1"
     pagecolor="#ffffff"
     bordercolor="#000000"
     borderopacity="0.25"
     inkscape:showpageshadow="2"
     inkscape:pageopacity="0.0"
     inkscape:pagecheckerboard="0"
     inkscape:deskcolor="#d1d1d1"
     inkscape:document-units="mm"
     inkscape:zoom="0.42245139"
     inkscape:cx="650.96247"
     inkscape:cy="719.60942"
     inkscape:window-width="1280"
     inkscape:window-height="1377"
     inkscape:window-x="-8"
     inkscape:window-y="-8"
     inkscape:window-maximized="0"
     inkscape:current-layer="layer1"
     showguides="true"
     showgrid="false" /><defs
     id="defs1"><marker
       id="DistanceX"
       orient="auto"
       refX="0"
       refY="0"
       style="overflow:visible"><path
         d="M 3,-3 -3,3 M 0,-5 V 5"
         style="stroke:#000000;stroke-width:0.5"
         id="path1-3" /></marker><pattern
       id="Hatch"
       patternUnits="userSpaceOnUse"
       width="8"
       height="8"
       x="0"
       y="0"><path
         d="M8 4 l-4,4"
         stroke="#000000"
         stroke-width="0.25"
         linecap="square"
         id="path2" /><path
         d="M6 2 l-4,4"
         stroke="#000000"
         stroke-width="0.25"
         linecap="square"
         id="path3" /><path
         d="M4 0 l-4,4"
         stroke="#000000"
         stroke-width="0.25"
         linecap="square"
         id="path4" /></pattern><symbol
       id="*MODEL_SPACE" /><symbol
       id="*PAPER_SPACE" /><marker
       id="DistanceX-6"
       orient="auto"
       refX="0"
       refY="0"
       style="overflow:visible"><path
         d="M 3,-3 -3,3 M 0,-5 V 5"
         style="stroke:#000000;stroke-width:0.5"
         id="path1-7" /></marker><pattern
       id="Hatch-5"
       patternUnits="userSpaceOnUse"
       width="8"
       height="8"
       x="0"
       y="0"><path
         d="M8 4 l-4,4"
         stroke="#000000"
         stroke-width="0.25"
         linecap="square"
         id="path2-3" /><path
         d="M6 2 l-4,4"
         stroke="#000000"
         stroke-width="0.25"
         linecap="square"
         id="path3-5" /><path
         d="M4 0 l-4,4"
         stroke="#000000"
         stroke-width="0.25"
         linecap="square"
         id="path4-6" /></pattern><symbol
       id="*MODEL_SPACE-2" /><symbol
       id="*PAPER_SPACE-9" /><marker
       id="DistanceX-2"
       orient="auto"
       refX="0"
       refY="0"
       style="overflow:visible"><path
         d="M 3,-3 -3,3 M 0,-5 V 5"
         style="stroke:#000000;stroke-width:0.5"
         id="path1-70" /></marker><pattern
       id="Hatch-9"
       patternUnits="userSpaceOnUse"
       width="8"
       height="8"
       x="0"
       y="0"><path
         d="M8 4 l-4,4"
         stroke="#000000"
         stroke-width="0.25"
         linecap="square"
         id="path2-36" /><path
         d="M6 2 l-4,4"
         stroke="#000000"
         stroke-width="0.25"
         linecap="square"
         id="path3-0" /><path
         d="M4 0 l-4,4"
         stroke="#000000"
         stroke-width="0.25"
         linecap="square"
         id="path4-62" /></pattern><symbol
       id="*MODEL_SPACE-6" /><symbol
       id="*PAPER_SPACE-1" /></defs><g
     id="layer1"
     style="stroke-width:2;stroke-dasharray:none"
     transform="translate(-12.575374,-9.2350726)"><g
       id="layer1-5"
       transform="rotate(90,382.70844,-120.7206)"
       style="stroke:#000000;stroke-width:1;stroke-dasharray:none;stroke-opacity:1"><path
         id="rect1"
         style="fill:none;fill-opacity:0.0987046;stroke:#000000;stroke-width:1;stroke-dasharray:none;stroke-opacity:1"
         d="m 684.00476,14.866361 h -0.003 A 30,30 0 0 0 675.21728,-6.3168393 30,30 0 0 0 654.04544,-15.10184 v -0.002 h -0.0413 -90.01002 v 10.0004206 h 90.01002 a 20,20 0 0 1 14.14229,5.85752005 20,20 0 0 1 5.85804,14.14229035 v 90.010019 h 9.99991 V 14.896391 Z" /></g><path
       d="M 14.662875,14.851742 H 29.662878 V 11.85174 h 30.000001 v 3.000002 h 30 V 11.85174 h 30.000051 v 3.000002 h 30 V 11.85174 h 30.00004 v 3.000002 h 29.99999 V 11.85174 h 30 v 3.000002 h 12 v 7.000001 h 3 v 30 h -3 v 20.000001 h 3 v 30.000006 h -3 v 20.00003 h 3 v 30 h -3 v 9.99999 H 14.662875 Z"
       style="fill:none;stroke:#000000;stroke-width:1;stroke-dasharray:none;stroke-opacity:1"
       id="path5-1-0" /><g
       id="layer1-7"
       transform="translate(-631.76319,186.61096)"
       style="stroke:#000000;stroke-width:1;stroke-dasharray:none;stroke-opacity:1"><path
         id="rect1-1-0"
         style="fill:none;fill-opacity:0.0987046;stroke:#000000;stroke-width:1;stroke-dasharray:none;stroke-opacity:1"
         d="m 896.02699,12.164642 v -0.003 c 7.94577,-0.007 15.56409,-3.1665797 21.1832,-8.7844797 5.61531,-5.61625 8.77452,-13.22994 8.785,-21.1718403 h 0.002 l 0.0691,-0.11323 -0.0598,-104.268292 -10.07806,-0.0247 0.0684,104.364942 c 1.4e-4,5.30433 -2.10688,10.3914703 -5.85752,14.1422903 -3.75073,3.75082995 -8.83788,5.85803 -14.14229,5.85804 l -104.27607,-0.008 0.0309,9.8912997 104.24512,0.11688 z" /></g></g></svg>
