<?xml version="1.0" encoding="UTF-8" standalone="no"?>
<!-- Created with Inkscape (http://www.inkscape.org/) -->

<svg
   width="284.64099mm"
   height="191.925mm"
   viewBox="0 0 284.64099 191.925"
   version="1.1"
   id="svg9545"
   inkscape:version="1.2.2 (732a01da63, 2022-12-09)"
   sodipodi:docname="side_right.svg"
   xmlns:inkscape="http://www.inkscape.org/namespaces/inkscape"
   xmlns:sodipodi="http://sodipodi.sourceforge.net/DTD/sodipodi-0.dtd"
   xmlns="http://www.w3.org/2000/svg"
   xmlns:svg="http://www.w3.org/2000/svg">
  <sodipodi:namedview
     id="namedview9547"
     pagecolor="#505050"
     bordercolor="#eeeeee"
     borderopacity="1"
     inkscape:showpageshadow="0"
     inkscape:pageopacity="0"
     inkscape:pagecheckerboard="0"
     inkscape:deskcolor="#505050"
     inkscape:document-units="mm"
     showgrid="false"
     inkscape:zoom="0.32346812"
     inkscape:cx="476.09019"
     inkscape:cy="357.06765"
     inkscape:window-width="1278"
     inkscape:window-height="1368"
     inkscape:window-x="1273"
     inkscape:window-y="0"
     inkscape:window-maximized="0"
     inkscape:current-layer="layer1" />
  <defs
     id="defs9542" />
  <g
     inkscape:label="Layer 1"
     inkscape:groupmode="layer"
     id="layer1"
     transform="translate(117.47427,19.061996)">
    <g
       id="layer1-5-4"
       transform="matrix(0,1,1,0,-83.071009,-531.72599)"
       style="stroke:#000000;stroke-width:1;stroke-dasharray:none;stroke-opacity:1">
      <path
         id="rect1-9"
         style="fill:none;fill-opacity:0.0987046;stroke:#000000;stroke-width:1;stroke-dasharray:none;stroke-opacity:1"
         d="m 684.00476,14.866361 h -0.003 A 30,30 0 0 0 675.21728,-6.3168393 30,30 0 0 0 654.04544,-15.10184 v -0.002 h -0.0413 -90.01002 v 10.0004206 h 90.01002 a 20,20 0 0 1 14.14229,5.85752005 20,20 0 0 1 5.85804,14.14229035 v 90.010019 h 9.99991 V 14.896391 Z" />
    </g>
    <path
       d="m 164.25408,-13.445327 h -15 v -3.000001 h -30 v 3.000001 H 89.254071 v -3.000001 h -30 v 3.000001 h -30 v -3.000001 H -0.74596993 v 3.000001 H -30.745959 v -3.000001 h -30 v 3.000001 h -12 v 7.0000008 h -3 V 23.554675 h 3 v 20 h -3 v 30 h 3 v 20.000029 h -3 v 30.000016 h 3 v 9.99999 H 164.25408 Z"
       style="fill:none;stroke:#000000;stroke-width:1;stroke-dasharray:none;stroke-opacity:1"
       id="path5-1-0-7" />
    <g
       id="layer1-7-8"
       transform="matrix(-1,0,0,1,810.67961,158.3139)"
       style="stroke:#000000;stroke-width:1;stroke-dasharray:none;stroke-opacity:1">
      <path
         id="rect1-1-0-9"
         style="fill:none;fill-opacity:0.0987046;stroke:#000000;stroke-width:1;stroke-dasharray:none;stroke-opacity:1"
         d="m 896.02699,12.164642 v -0.003 c 7.94577,-0.007 15.56409,-3.1665797 21.1832,-8.7844797 5.61531,-5.61625 8.77452,-13.22994 8.785,-21.1718403 h 0.002 l 0.0691,-0.11323 -0.0598,-104.268292 -10.07806,-0.0247 0.0684,104.364942 c 1.4e-4,5.30433 -2.10688,10.3914703 -5.85752,14.1422903 -3.75073,3.75082995 -8.83788,5.85803 -14.14229,5.85804 l -104.27607,-0.008 0.0309,9.8912997 104.24512,0.11688 z" />
    </g>
  </g>
</svg>
